<svg xmlns="http://www.w3.org/2000/svg" xmlns:xlink="http://www.w3.org/1999/xlink" aria-hidden="true" role="img" class="iconify iconify--logos" width="31.88" height="32" preserveAspectRatio="xMidYMid meet" viewBox="0 0 256 257"><defs><linearGradient id="IconifyId1813088fe1fbc01fb466" x1="-.828%" x2="57.636%" y1="-7.652%" y2="78.411%"><stop offset="0%" stop-color="#FF00FF"></stop><stop offset="100%" stop-color="#FF8C00"></stop></linearGradient></defs><path fill="url(#IconifyId1813088fe1fbc01fb466)" d="M255.153 37.938L134.897 252.976c-2.883 5.084-10.017 5.084-12.9 0L.506 37.938c-2.883-5.084-.723-11.228 4.595-13.697L131.505 1.693c4.404-2.468 10.025-2.468 14.429 0l126.404 22.548c5.318 2.469 7.478 8.613 4.595 13.697z"></path><path fill="#FFF" d="M185.432.063L96.44 17.557l63.168 110.66 86.287-47.353L185.432.063z"></path><path fill="#FFF" d="M185.431 257.488v-71.832l50.759-27.614c3.897-2.117 8.586.03 10.175 4.078l.947 2.913c.39 1.202.196 2.536-.559 3.594l-8.117 11.239a6.931 6.931 0 0 0-1.273 2.yanked"></path><path fill="#FFF" d="M70.56 123.556l86.287 37.141-63.168 110.66-32.868-149.35a6.938 6.938 0 0 1 9.748-8.45z"></path></svg>
